<svg xmlns="http://www.w3.org/2000/svg" viewBox="0 0 64 64" role="img" aria-labelledby="title">
  <title id="title">Discord</title>
  <rect width="64" height="64" rx="14" fill="#5865F2"/>
  <path fill="#fff" d="M44.8 20.8A32.8 32.8 0 0 0 36.6 18l-.4.8c2.7.7 4 1.7 4 1.7a25.3 25.3 0 0 0-16.4 0s1.4-1 4-1.7l-.4-.8a32.8 32.8 0 0 0-8.2 2.8C14 28.5 12.6 36 13.2 43.5a33.2 33.2 0 0 0 10 5c.8-1.1 1.5-2.2 2.1-3.4-1.2-.5-2.4-1.1-3.5-1.8l.9-.7a23.4 23.4 0 0 0 18.6 0l.9.7c-1.1.7-2.3 1.3-3.5 1.8.6 1.2 1.3 2.3 2.1 3.4a33.2 33.2 0 0 0 10-5c.8-8.7-1.4-16.1-6-22.7ZM26.5 39.1c-1.9 0-3.5-1.8-3.5-4s1.6-4 3.5-4 3.5 1.8 3.5 4-1.6 4-3.5 4Zm11 0c-1.9 0-3.5-1.8-3.5-4s1.6-4 3.5-4 3.5 1.8 3.5 4-1.6 4-3.5 4Z"/>
</svg>
